<svg width="50" height="50" viewBox="0 0 50 50" fill="none" xmlns="http://www.w3.org/2000/svg">
<g clip-path="url(#clip0_1_28)">
<path d="M20.75 20.7188C21.1406 20.9062 21.4219 21.125 21.5938 21.375C21.7656 21.625 21.8516 21.9453 21.8516 22.3359C21.8516 22.7266 21.7656 23.0469 21.5938 23.2969C21.4219 23.5469 21.1406 23.7656 20.75 23.9531L2.53906 32.8828C2.22656 33.0391 1.9375 33.1172 1.67188 33.1172C1.15625 33.1172 0.726562 32.7812 0.382812 32.1094C0.195312 31.7344 0.101562 31.4062 0.101562 31.125C0.101562 30.6094 0.421875 30.1953 1.0625 29.8828L16.8125 22.3359L1.0625 14.7891C0.421875 14.4766 0.101562 14.0625 0.101562 13.5469C0.101562 13.2656 0.195312 12.9375 0.382812 12.5625C0.726562 11.8906 1.15625 11.5547 1.67188 11.5547C1.9375 11.5547 2.22656 11.6328 2.53906 11.7891L20.75 20.7188ZM41.8203 13.8281C43.2422 13.8281 44.4766 14.1406 45.5234 14.7656C46.5703 15.375 47.375 16.2578 47.9375 17.4141C48.5 18.5703 48.7812 19.9219 48.7812 21.4688V32.8125H50.7031C51.2344 32.8125 51.6094 32.9375 51.8281 33.1875C52.0625 33.4219 52.1797 33.8281 52.1797 34.4062C52.1797 34.9844 52.0625 35.3984 51.8281 35.6484C51.6094 35.8828 51.2344 36 50.7031 36H43.1094C42.5781 36 42.1953 35.8828 41.9609 35.6484C41.7422 35.3984 41.6328 34.9844 41.6328 34.4062C41.6328 33.8281 41.7422 33.4219 41.9609 33.1875C42.1953 32.9375 42.5781 32.8125 43.1094 32.8125H45.2656V21.8203C45.2656 20.4297 44.9453 19.3281 44.3047 18.5156C43.6641 17.7031 42.7188 17.2969 41.4688 17.2969C40.1406 17.2969 38.8984 17.6797 37.7422 18.4453C36.6016 19.2109 35.6875 20.2656 35 21.6094C34.3125 22.9531 33.9688 24.4531 33.9688 26.1094V32.8125H36.125C36.6562 32.8125 37.0312 32.9375 37.25 33.1875C37.4844 33.4219 37.6016 33.8281 37.6016 34.4062C37.6016 34.9844 37.4844 35.3984 37.25 35.6484C37.0312 35.8828 36.6562 36 36.125 36H28.5312C28 36 27.6172 35.8828 27.3828 35.6484C27.1641 35.3984 27.0547 34.9844 27.0547 34.4062C27.0547 33.8281 27.1641 33.4219 27.3828 33.1875C27.6172 32.9375 28 32.8125 28.5312 32.8125H30.4531V17.5312H28.0625C27.5312 17.5312 27.1484 17.4141 26.9141 17.1797C26.6953 16.9297 26.5859 16.5156 26.5859 15.9375C26.5859 15.3594 26.6953 14.9531 26.9141 14.7188C27.1484 14.4688 27.5312 14.3438 28.0625 14.3438H32.2578C32.7891 14.3438 33.1641 14.4688 33.3828 14.7188C33.6172 14.9531 33.7344 15.3594 33.7344 15.9375V18.75C34.7656 17.1562 35.9688 15.9375 37.3438 15.0938C38.7344 14.25 40.2266 13.8281 41.8203 13.8281Z" fill="black"/>
<path d="M20.75 20.7188C21.1406 20.9062 21.4219 21.125 21.5938 21.375C21.7656 21.625 21.8516 21.9453 21.8516 22.3359C21.8516 22.7266 21.7656 23.0469 21.5938 23.2969C21.4219 23.5469 21.1406 23.7656 20.75 23.9531L2.53906 32.8828C2.22656 33.0391 1.9375 33.1172 1.67188 33.1172C1.15625 33.1172 0.726562 32.7812 0.382812 32.1094C0.195312 31.7344 0.101562 31.4062 0.101562 31.125C0.101562 30.6094 0.421875 30.1953 1.0625 29.8828L16.8125 22.3359L1.0625 14.7891C0.421875 14.4766 0.101562 14.0625 0.101562 13.5469C0.101562 13.2656 0.195312 12.9375 0.382812 12.5625C0.726562 11.8906 1.15625 11.5547 1.67188 11.5547C1.9375 11.5547 2.22656 11.6328 2.53906 11.7891L20.75 20.7188ZM41.8203 13.8281C43.2422 13.8281 44.4766 14.1406 45.5234 14.7656C46.5703 15.375 47.375 16.2578 47.9375 17.4141C48.5 18.5703 48.7812 19.9219 48.7812 21.4688V32.8125H50.7031C51.2344 32.8125 51.6094 32.9375 51.8281 33.1875C52.0625 33.4219 52.1797 33.8281 52.1797 34.4062C52.1797 34.9844 52.0625 35.3984 51.8281 35.6484C51.6094 35.8828 51.2344 36 50.7031 36H43.1094C42.5781 36 42.1953 35.8828 41.9609 35.6484C41.7422 35.3984 41.6328 34.9844 41.6328 34.4062C41.6328 33.8281 41.7422 33.4219 41.9609 33.1875C42.1953 32.9375 42.5781 32.8125 43.1094 32.8125H45.2656V21.8203C45.2656 20.4297 44.9453 19.3281 44.3047 18.5156C43.6641 17.7031 42.7188 17.2969 41.4688 17.2969C40.1406 17.2969 38.8984 17.6797 37.7422 18.4453C36.6016 19.2109 35.6875 20.2656 35 21.6094C34.3125 22.9531 33.9688 24.4531 33.9688 26.1094V32.8125H36.125C36.6562 32.8125 37.0312 32.9375 37.25 33.1875C37.4844 33.4219 37.6016 33.8281 37.6016 34.4062C37.6016 34.9844 37.4844 35.3984 37.25 35.6484C37.0312 35.8828 36.6562 36 36.125 36H28.5312C28 36 27.6172 35.8828 27.3828 35.6484C27.1641 35.3984 27.0547 34.9844 27.0547 34.4062C27.0547 33.8281 27.1641 33.4219 27.3828 33.1875C27.6172 32.9375 28 32.8125 28.5312 32.8125H30.4531V17.5312H28.0625C27.5312 17.5312 27.1484 17.4141 26.9141 17.1797C26.6953 16.9297 26.5859 16.5156 26.5859 15.9375C26.5859 15.3594 26.6953 14.9531 26.9141 14.7188C27.1484 14.4688 27.5312 14.3438 28.0625 14.3438H32.2578C32.7891 14.3438 33.1641 14.4688 33.3828 14.7188C33.6172 14.9531 33.7344 15.3594 33.7344 15.9375V18.75C34.7656 17.1562 35.9688 15.9375 37.3438 15.0938C38.7344 14.25 40.2266 13.8281 41.8203 13.8281Z" fill="white"/>
</g>
<defs>
<clipPath id="clip0_1_28">
<rect width="50" height="50" fill="white"/>
</clipPath>
</defs>
</svg>
